<svg width="1080" height="1080" xmlns="http://www.w3.org/2000/svg">
 <g id="Layer_1">
  <title>Layer 1</title>
  <path id="svg_4" d="m402.7088,561.37962c11.2322,-8.72345 14.68826,-14.30646 14.68826,-14.30646l0.86401,0c0,0 -0.43201,7.67664 -0.43201,15.35328l0,159.0285l-67.35719,0l0,29.97959l175.32311,0l0,-29.97959l-66.49318,0l0,-216.22526l-37.98067,0l-72.9733,57.19676l25.88446,21.63415c9.49217,-7.56032 18.98434,-15.12064 28.47651,-22.68097zm158.58281,171.24134c0,5.96102 0.86401,12.21283 2.16004,18.81357l196.45548,0l0,-29.97959l-151.09468,0c0.82801,-56.14994 146.34259,-68.68263 146.34259,-149.63626c0,-42.54136 -40.10471,-70.83441 -96.2657,-70.83441c-68.65322,0 -96.30171,46.72861 -96.30171,46.72861l31.50056,17.06889c0,0 21.60038,-31.40442 61.77709,-31.40442c31.93257,0 54.79297,16.37101 54.79297,40.79667c0,58.04002 -149.36664,70.60179 -149.36664,158.44694zm-149.87066,-511.863l-72.00128,0l0,96.97569l72.00128,0l0,-96.97569zm396.00702,33.90514l0,92.1778l-144.00255,0l0,-92.1778l-216.00383,0l0,92.11964l-143.93055,0l0,-92.11964l-87.08555,0l0,630.09483l678.00002,0l0,-630.09483l-86.97754,0zm51.0129,600.98759l-605.99874,0l0,-433.72996l605.99874,0l0,433.72996zm-87.01354,-634.89273l-72.00127,0l0,96.97569l72.00127,0l0,-96.97569z" stroke="#3aafaf" fill="#315f57"/>
 </g>

</svg>